<svg xmlns="http://www.w3.org/2000/svg" xmlns:xlink="http://www.w3.org/1999/xlink" width="1280" zoomAndPan="magnify" viewBox="0 0 960 540.000001" height="720" preserveAspectRatio="xMidYMid meet" version="1.0"><defs><g/><clipPath id="5ee6d84c91"><path d="M 171 113 L 814 113 L 814 466.71875 L 171 466.71875 Z M 171 113 " clip-rule="nonzero"/></clipPath><clipPath id="e3d58e50db"><path d="M 144.480469 110.816406 L 831 110.816406 L 831 466.71875 L 144.480469 466.71875 Z M 144.480469 110.816406 " clip-rule="nonzero"/></clipPath></defs><g fill="#ffffff" fill-opacity="1"><g transform="translate(616.343415, 374.136303)"><g><path d="M 83.964844 3.34375 C 128.546875 2.972656 151.953125 -23.40625 151.953125 -54.613281 C 151.953125 -91.765625 117.773438 -100.3125 89.539062 -109.601562 C 60.1875 -119.261719 36.410156 -128.921875 36.410156 -152.328125 C 36.410156 -171.273438 52.757812 -183.535156 78.019531 -183.535156 C 104.398438 -183.535156 128.175781 -166.445312 140.066406 -139.695312 L 143.78125 -140.4375 L 142.296875 -178.332031 C 130.777344 -183.164062 108.859375 -188.363281 84.707031 -188.363281 C 41.609375 -188.363281 17.089844 -165.703125 17.089844 -136.351562 C 17.089844 -102.542969 42.355469 -92.882812 77.648438 -81.734375 C 106.257812 -72.449219 132.265625 -63.902344 132.265625 -37.152344 C 132.265625 -16.347656 115.171875 -2.601562 92.140625 -2.601562 C 58.328125 -2.972656 31.953125 -24.148438 16.347656 -59.445312 L 13.003906 -58.703125 L 16.347656 -13.746094 C 28.609375 -5.574219 54.242188 3.34375 83.964844 3.34375 Z M 83.964844 3.34375 "/></g></g></g><g fill="#ffffff" fill-opacity="1"><g transform="translate(524.230141, 365.036038)"><g><path d="M 30.1875 -186.203125 C 41.175781 -190.773438 51.742188 -193.0625 61.890625 -193.0625 C 70.347656 -193.0625 79.0625 -189.929688 88.03125 -183.671875 C 92.925781 -180.285156 98.421875 -173.6875 104.515625 -163.875 C 108.578125 -157.113281 113.734375 -144.851562 119.984375 -127.09375 L 150.9375 -39.328125 C 158.039062 -19.703125 165.269531 -4.097656 172.625 7.484375 C 179.988281 19.066406 186.710938 27.773438 192.796875 33.609375 C 198.890625 39.441406 205.234375 43.539062 211.828125 45.90625 C 218.421875 48.28125 223.875 49.46875 228.1875 49.46875 C 232.5 49.46875 236.347656 49.128906 239.734375 48.453125 L 239.984375 50.984375 C 231.867188 53.691406 223.921875 55.046875 216.140625 55.046875 C 208.359375 55.046875 200.578125 53.054688 192.796875 49.078125 C 185.015625 45.109375 177.742188 39.570312 170.984375 32.46875 C 156.441406 17.757812 144.09375 -4.644531 133.9375 -34.75 L 124.046875 -63.671875 L 54.546875 -63.671875 L 37.03125 -18.515625 C 36.1875 -16.484375 35.765625 -14.453125 35.765625 -12.421875 C 35.765625 -10.398438 36.648438 -8.242188 38.421875 -5.953125 C 40.203125 -3.671875 42.953125 -2.53125 46.671875 -2.53125 L 48.703125 -2.53125 L 48.703125 0 L -2.28125 0 L -2.28125 -2.53125 L 0 -2.53125 C 4.050781 -2.53125 8.019531 -3.753906 11.90625 -6.203125 C 15.800781 -8.660156 19.019531 -12.34375 21.5625 -17.25 L 84.46875 -167.9375 C 75.34375 -180.957031 64.015625 -187.46875 50.484375 -187.46875 C 44.390625 -187.46875 37.878906 -186.203125 30.953125 -183.671875 Z M 57.328125 -71.28125 L 121.515625 -71.28125 L 101.46875 -130.390625 C 97.582031 -141.722656 94.03125 -150.601562 90.8125 -157.03125 Z M 57.328125 -71.28125 "/></g></g></g><g fill="#ffffff" fill-opacity="1"><g transform="translate(257.806331, 377.329095)"><g><path d="M 119.621094 2.847656 C 148.386719 2.847656 181.425781 -11.960938 197.945312 -35.03125 L 197.945312 -88.578125 L 160.636719 -88.578125 L 160.636719 -85.160156 C 172.882812 -82.027344 175.160156 -75.191406 175.160156 -57.53125 L 175.445312 -28.480469 C 168.324219 -14.242188 149.8125 -2.847656 128.453125 -2.847656 C 70.917969 -2.847656 37.3125 -61.804688 37.878906 -115.636719 C 38.449219 -168.039062 69.210938 -196.238281 110.222656 -196.238281 C 143.546875 -196.238281 169.75 -176.871094 180.289062 -152.375 L 183.136719 -152.945312 L 181.996094 -186.554688 C 170.890625 -193.960938 143.832031 -201.363281 118.484375 -201.363281 C 57.53125 -201.363281 14.808594 -155.507812 14.808594 -98.261719 C 14.808594 -37.027344 56.109375 2.847656 119.621094 2.847656 Z M 119.621094 2.847656 "/></g></g></g><g fill="#ffffff" fill-opacity="1"><g transform="translate(149.156797, 372.035468)"><g><path d="M 223.84375 -98.578125 C 223.84375 -66.378906 215.179688 -41.242188 197.859375 -23.171875 C 180.546875 -5.097656 156.066406 3.9375 124.421875 3.9375 C 103.078125 3.9375 83.835938 -0.554688 66.703125 -9.546875 C 49.566406 -18.535156 36.269531 -30.800781 26.8125 -46.34375 C 17.363281 -61.882812 12.640625 -79.25 12.640625 -98.4375 C 12.640625 -117.632812 17.316406 -135.003906 26.671875 -150.546875 C 36.035156 -166.085938 48.957031 -178.300781 65.4375 -187.1875 C 81.914062 -196.082031 100.265625 -200.53125 120.484375 -200.53125 C 133.222656 -200.53125 146.191406 -198.796875 159.390625 -195.328125 C 172.585938 -191.867188 183.585938 -187.238281 192.390625 -181.4375 L 198 -141.828125 L 195.484375 -141.828125 C 191.546875 -157.554688 182.460938 -169.867188 168.234375 -178.765625 C 154.003906 -187.660156 138.179688 -192.109375 120.765625 -192.109375 C 95.867188 -192.109375 75.132812 -183.257812 58.5625 -165.5625 C 41.988281 -147.875 33.703125 -125.640625 33.703125 -98.859375 C 33.703125 -72.085938 42.265625 -49.664062 59.390625 -31.59375 C 76.523438 -13.53125 98.945312 -4.5 126.65625 -4.5 C 154.375 -4.5 176.984375 -13.484375 194.484375 -31.453125 C 211.992188 -49.429688 220.75 -74.054688 220.75 -105.328125 L 223.5625 -105.328125 C 223.75 -103.078125 223.84375 -100.828125 223.84375 -98.578125 Z M 223.84375 -98.578125 "/></g></g></g><g clip-path="url(#5ee6d84c91)"><path fill="#ffffff" d="M 607.414062 115.011719 C 716.855469 115.011719 794.128906 150.097656 809.089844 206.59375 C 819.925781 247.53125 797.375 294.789062 745.570312 339.675781 C 693.429688 384.84375 618.039062 422.089844 533.269531 444.535156 C 480.621094 458.476562 426.761719 465.855469 377.535156 465.855469 C 268.09375 465.855469 190.804688 430.765625 175.84375 374.269531 C 165.007812 333.335938 187.554688 286.078125 239.363281 241.191406 C 291.503906 196.023438 366.894531 158.773438 451.664062 136.332031 C 504.3125 122.371094 558.15625 115.011719 607.414062 115.011719 M 607.398438 113.253906 C 559.261719 113.253906 505.945312 120.140625 451.207031 134.628906 C 275.398438 181.164062 151.363281 288.660156 174.140625 374.710938 C 189.820312 433.960938 271.042969 467.59375 377.519531 467.59375 C 425.652344 467.59375 478.96875 460.707031 533.710938 446.21875 C 709.515625 399.664062 833.554688 292.171875 810.777344 206.136719 C 795.074219 146.886719 713.871094 113.238281 607.398438 113.253906 Z M 607.398438 113.253906 " fill-opacity="1" fill-rule="nonzero"/></g><g clip-path="url(#e3d58e50db)"><path fill="#ffffff" d="M 830.621094 161.234375 C 782.292969 162.390625 781.359375 163.339844 780.203125 211.652344 C 779.042969 163.324219 778.09375 162.390625 729.78125 161.234375 C 778.113281 160.074219 779.042969 159.125 780.203125 110.816406 C 781.359375 159.144531 782.308594 160.074219 830.621094 161.234375 Z M 245.824219 415.875 C 197.496094 417.03125 196.566406 417.980469 195.40625 466.292969 C 194.246094 417.964844 193.300781 417.03125 144.988281 415.875 C 193.316406 414.714844 194.246094 413.765625 195.40625 365.457031 C 196.566406 413.785156 197.515625 414.714844 245.824219 415.875 Z M 245.824219 415.875 " fill-opacity="1" fill-rule="nonzero"/></g><g fill="#ffffff" fill-opacity="1"><g transform="translate(467.911681, 344.742111)"><g><path d="M 14.667969 0 C 14.667969 -6.707031 21.625 -19.53125 24.390625 -23.722656 L 27.914062 -29.003906 L 43.421875 0 L 58.089844 0 L 35.960938 -41.324219 L 59.011719 -76.445312 L 45.933594 -76.445312 C 45.933594 -69.574219 42.917969 -63.203125 32.941406 -46.941406 L 17.265625 -76.445312 L 2.597656 -76.445312 L 24.980469 -34.453125 L 1.59375 0 Z M 14.667969 0 "/></g></g></g></svg>